External Loads File
version=1
nRows=53
nColumns=13
Range=5.000000e-03-10 seconds
endheader
time 	forceRightX 	forceRightY 	forceRightZ 	pointRightX 	pointRightY 	pointRightZ 	forceLeftX 	forceLeftY 	forceLeftZ 	pointLeftX 	pointLeftY 	pointLeftZ 		
2.505000 62.751756 -220.059689 -0.000000 0.184608 0.200764 -0.112099 -398.711606 1109.555690 -0.000000 0.396649 0.424050 -0.363711
2.510000 59.695963 -211.419498 -0.000000 0.180851 0.205959 -0.112159 -401.250972 1128.984244 -0.000000 0.400501 0.418380 -0.363593
2.515000 56.922149 -203.209737 -0.000000 0.177281 0.211620 -0.112186 -401.372916 1146.803735 -0.000000 0.404180 0.412656 -0.363481
2.520000 54.394651 -195.669566 -0.000000 0.173905 0.217416 -0.112235 -399.246569 1162.482077 -0.000000 0.407780 0.406680 -0.363342
2.525000 52.073516 -188.960792 -0.000000 0.170764 0.223465 -0.112221 -395.193935 1175.521035 -0.000000 0.411292 0.400589 -0.363218
2.530000 49.889921 -183.200785 -0.000000 0.167859 0.229599 -0.112289 -389.534588 1185.534444 -0.000000 0.414779 0.394280 -0.363197
2.535000 47.758940 -178.480337 -0.000000 0.165117 0.235927 -0.112480 -382.651152 1192.260331 -0.000000 0.418090 0.387803 -0.363120
2.540000 45.638154 -174.840833 -0.000000 0.162699 0.242441 -0.112627 -375.348413 1195.499541 -0.000000 0.421275 0.381197 -0.363061
2.545000 43.517716 -172.267397 -0.000000 0.160541 0.249034 -0.112711 -368.639520 1195.217675 -0.000000 0.424285 0.374568 -0.362980
2.550000 41.186795 -170.759177 -0.000000 0.158714 0.255798 -0.112795 -361.917299 1192.045474 -0.000000 0.427083 0.367779 -0.362876
2.555000 38.597704 -170.258320 -0.000000 0.156968 0.262550 -0.113147 -355.396525 1186.399756 -0.000000 0.429733 0.360898 -0.362788
2.560000 35.679228 -170.711309 -0.000000 0.155812 0.269469 -0.112985 -348.862921 1178.769809 -0.000000 0.432157 0.353900 -0.362635
2.565000 32.312117 -172.064622 -0.000000 0.154857 0.276439 -0.112853 -341.633931 1169.667220 -0.000000 0.434497 0.346761 -0.362509
2.570000 28.544556 -174.213344 -0.000000 0.154157 0.283468 -0.112822 -334.118198 1159.185722 -0.000000 0.436596 0.339600 -0.362374
2.575000 24.243256 -177.076714 -0.000000 0.153765 0.290636 -0.112688 -325.421560 1147.751361 -0.000000 0.438496 0.332330 -0.362139
2.580000 19.349645 -180.563856 -0.000000 0.153501 0.298002 -0.112499 -315.256546 1135.594637 -0.000000 0.440179 0.325008 -0.361971
2.585000 13.970407 -184.585020 -0.000000 0.153631 0.305239 -0.112474 -304.601369 1122.605033 -0.000000 0.441580 0.317547 -0.361879
2.590000 8.007743 -189.075130 -0.000000 0.154039 0.312454 -0.112447 -293.259725 1109.011676 -0.000000 0.442705 0.310054 -0.361795
2.595000 1.223232 -193.908727 -0.000000 0.154706 0.319800 -0.112453 -280.225929 1095.196520 -0.000000 0.443578 0.302428 -0.361763
2.600000 -6.293532 -198.848786 -0.000000 0.155679 0.327180 -0.112540 -266.256577 1080.968859 -0.000000 0.444200 0.294765 -0.361740
2.605000 -14.527341 -203.601448 -0.000000 0.157004 0.334621 -0.112578 -251.417391 1066.243785 -0.000000 0.444555 0.287104 -0.361679
2.610000 -23.262715 -207.901519 -0.000000 0.158522 0.342034 -0.112660 -236.622729 1050.729027 -0.000000 0.444662 0.279547 -0.361572
2.615000 -32.612039 -211.525854 -0.000000 0.160461 0.349457 -0.112734 -220.848853 1034.614728 -0.000000 0.444401 0.271872 -0.361485
2.620000 -42.201227 -214.362678 -0.000000 0.162533 0.356922 -0.112952 -205.117472 1017.643964 -0.000000 0.443877 0.264300 -0.361358
2.625000 -51.874114 -216.252731 -0.000000 0.164909 0.364437 -0.113068 -188.871811 999.850055 -0.000000 0.443077 0.256740 -0.361218
2.630000 -61.474120 -216.932885 -0.000000 0.167492 0.372339 -0.113261 -171.298581 981.159840 -0.000000 0.442012 0.249283 -0.361094
2.635000 -70.043767 -216.334335 -0.000000 0.170340 0.379511 -0.113436 -155.137130 960.751054 -0.000000 0.440653 0.241891 -0.361017
2.640000 -77.882471 -214.107134 -0.000000 0.173427 0.386730 -0.113588 -137.656550 938.680445 -0.000000 0.439014 0.234520 -0.360888
2.645000 -84.497133 -210.287684 -0.000000 0.176758 0.393695 -0.113719 -120.163292 914.323784 -0.000000 0.437046 0.227440 -0.360875
2.650000 -90.054374 -204.865873 -0.000000 0.180322 0.400577 -0.113878 -101.737766 887.498079 -0.000000 0.434785 0.220435 -0.360784
2.655000 -94.534799 -198.069677 -0.000000 0.184146 0.407302 -0.114033 -83.043115 857.980070 -0.000000 0.432267 0.213589 -0.360664
2.660000 -98.158705 -190.119988 -0.000000 0.188184 0.413955 -0.114157 -64.299065 825.812300 -0.000000 0.429504 0.206883 -0.360510
2.665000 -101.197134 -181.202631 -0.000000 0.192575 0.420520 -0.114378 -45.801853 791.193210 -0.000000 0.426479 0.200387 -0.360337
2.670000 -103.947336 -171.432727 -0.000000 0.197413 0.426871 -0.113930 -27.789406 754.434138 -0.000000 0.423168 0.194045 -0.360197
2.675000 -106.395554 -161.056279 -0.000000 0.201872 0.433030 -0.114797 -11.805980 715.872628 -0.000000 0.419568 0.187965 -0.360142
2.680000 -109.276131 -149.732444 -0.000000 0.207066 0.438940 -0.114597 4.120689 675.941348 -0.000000 0.415663 0.181970 -0.360060
2.685000 -112.700705 -137.307589 -0.000000 0.212637 0.444945 -0.115446 19.693684 634.929660 -0.000000 0.411424 0.176300 -0.360053
2.690000 -116.464692 -123.731076 -0.000000 0.218179 0.450439 -0.115477 33.752385 593.190186 -0.000000 0.406995 0.170724 -0.360082
2.695000 -120.536422 -108.775863 -0.000000 0.223580 0.455519 -0.115646 46.370596 551.163316 -0.000000 0.402190 0.165720 -0.360072
2.700000 -125.037316 -92.026481 -0.000000 0.229377 0.460081 -0.115816 58.750544 509.313785 -0.000000 0.397007 0.160963 -0.360045
2.705000 -129.793067 -73.353547 -0.000000 0.235315 0.464610 -0.115971 71.001539 468.276855 -0.000000 0.391355 0.156500 -0.360174
2.710000 -134.489800 -52.828151 -0.000000 0.241413 0.468912 -0.116030 82.782471 428.800708 -0.000000 0.385334 0.152400 -0.360311
2.715000 -138.791013 -30.537181 -0.000000 0.247642 0.472849 -0.115975 93.965693 391.518643 -0.000000 0.378879 0.148882 -0.360219
2.720000 -142.343990 -6.399890 -0.000000 0.254321 0.476472 -0.116258 104.987149 356.639595 -0.000000 0.372145 0.145533 -0.360103
2.725000 -144.761739 19.131972 -0.000000 0.260320 0.479914 -0.116355 114.849745 324.373706 -0.000000 0.365053 0.142675 -0.360005
2.730000 -145.763540 46.472695 -0.000000 0.266501 0.483036 -0.116490 124.357917 293.989169 -0.000000 0.357851 0.139983 -0.359849
2.735000 -145.069999 75.953321 -0.000000 0.272743 0.485848 -0.116810 133.401736 264.633320 -0.000000 0.350471 0.137998 -0.359599
2.740000 -142.502422 108.154488 -0.000000 0.278784 0.488270 -0.116898 141.917244 235.245211 -0.000000 0.342926 0.135883 -0.359316
2.745000 -138.155057 143.653879 -0.000000 0.284639 0.490277 -0.116964 149.602083 204.899101 -0.000000 0.335247 0.135735 -0.359093
2.750000 -131.938270 183.372068 -0.000000 0.290459 0.491939 -0.117042 156.621780 172.465049 -0.000000 0.327604 0.134754 -0.358924
2.755000 -124.236955 227.694223 -0.000000 0.295950 0.493222 -0.117021 162.466218 137.517668 -0.000000 0.319878 0.134079 -0.358774
2.760000 -115.599832 276.812253 -0.000000 0.301075 0.494040 -0.116681 166.738857 99.984579 -0.000000 0.312172 0.133816 -0.358675
2.765000 -106.530757 330.626490 -0.000000 0.306011 0.494309 -0.116549 169.076931 60.149952 -0.000000 0.304497 0.133815 -0.358585
